<svg xmlns="http://www.w3.org/2000/svg" xmlns:xlink="http://www.w3.org/1999/xlink" width="28.456" height="36.989" viewBox="0 0 28.456 36.989">
  <defs>
    <clipPath id="clip-path-3">
      <rect width="10.143" height="9.073" fill="#fff"/>
    </clipPath>
    <clipPath id="clip-path-4">
      <rect width="16.553" height="17.151" fill="#8e8e8e"/>
    </clipPath>
  </defs>
  <g transform="translate(-489.589 -3203.5)">
    <path d="M9.593,1.3q.284,0,.57.019A8.28,8.28,0,0,1,15.143,15.7a3.006,3.006,0,0,0-.992,2.205v.117a.428.428,0,0,1-.428.428h-8.3a.428.428,0,0,1-.428-.428v-.078a3.1,3.1,0,0,0-1.016-2.27A8.275,8.275,0,0,1,9.593,1.3m0-1.3A9.574,9.574,0,0,0,3.1,16.628a1.8,1.8,0,0,1,.6,1.314v.078a1.727,1.727,0,0,0,1.725,1.725h8.3a1.727,1.727,0,0,0,1.725-1.725V17.9a1.707,1.707,0,0,1,.57-1.248A9.576,9.576,0,0,0,10.252.023C10.038.008,9.815,0,9.593,0" transform="translate(494.243 3210.589)" fill="#fff"/>
    <g transform="translate(498.745 3231.416)">
      <g transform="translate(0 0)" clip-path="url(#clip-path-3)">
        <path d="M9.346,2.22a.8.8,0,0,0,.8-.8V.8a.8.8,0,0,0-.8-.8H.8A.787.787,0,0,0,0,.8v.627a.787.787,0,0,0,.8.8,1.005,1.005,0,1,1,0,2.011.787.787,0,0,0-.8.8v.627a.787.787,0,0,0,.8.8H1.03A1.006,1.006,0,0,1,2.035,7.456V7.85A1.22,1.22,0,0,0,3.25,9.073H6.885A1.224,1.224,0,0,0,8.108,7.85V7.456A1.006,1.006,0,0,1,9.113,6.451h.233a.8.8,0,0,0,.8-.8V5.027a.8.8,0,0,0-.8-.8,1.005,1.005,0,1,1,0-2.011" transform="translate(0 0)" fill="#fff"/>
      </g>
    </g>
    <g transform="translate(495.54 3211.958)" opacity="0.199">
      <g transform="translate(0 0)" clip-path="url(#clip-path-4)">
        <path d="M8.3,0q.284,0,.57.019A8.28,8.28,0,0,1,13.846,14.4a3.006,3.006,0,0,0-.992,2.205v.117a.428.428,0,0,1-.428.428h-8.3a.428.428,0,0,1-.428-.428v-.078a3.1,3.1,0,0,0-1.016-2.27A8.275,8.275,0,0,1,8.3,0" transform="translate(0 0)" fill="#8e8e8e"/>
      </g>
    </g>
    <line y1="3.891" transform="translate(503.647 3204.5)" fill="none" stroke="#fff" stroke-linecap="round" stroke-width="2"/>
    <line y1="2.846" x2="3.243" transform="translate(513.39 3210.337)" fill="none" stroke="#fff" stroke-linecap="round" stroke-width="2"/>
    <line x1="3.243" y1="2.846" transform="translate(491 3210.337)" fill="none" stroke="#fff" stroke-linecap="round" stroke-width="2"/>
    <circle cx="1.297" cy="1.297" r="1.297" transform="matrix(-0.899, 0.438, -0.438, -0.899, 505.551, 3223.242)" fill="#fff"/>
    <circle cx="1.297" cy="1.297" r="1.297" transform="matrix(0.899, -0.438, 0.438, 0.899, 502.082, 3217.177)" fill="#fff"/>
  </g>
</svg>

