<svg xmlns="http://www.w3.org/2000/svg" xmlns:xlink="http://www.w3.org/1999/xlink" width="31.563" height="33.466" viewBox="0 0 31.563 33.466">
  <defs>
    <clipPath id="clip-path-6">
      <rect width="31.563" height="33.466" fill="#fff"/>
    </clipPath>
  </defs>
  <g transform="translate(-526 -3373)">
    <g transform="translate(2 164.5)">
      <rect width="15" height="7" transform="translate(532 3209.5)" fill="#303232"/>
      <rect width="15" height="7" transform="translate(532 3221.5)" fill="#303232"/>
      <rect width="15" height="7" transform="translate(532 3233.5)" fill="#303232"/>
    </g>
    <g transform="translate(526 3373)">
      <g clip-path="url(#clip-path-6)">
        <path d="M35.783,8.815H22.511a1.7,1.7,0,0,1-1.7-1.7V1.7a1.7,1.7,0,0,1,1.7-1.7H35.783a1.7,1.7,0,0,1,1.7,1.7V7.119a1.7,1.7,0,0,1-1.7,1.7M22.511,1.253a.443.443,0,0,0-.442.442V7.119a.443.443,0,0,0,.442.442H35.783a.443.443,0,0,0,.442-.442V1.7a.443.443,0,0,0-.442-.442Z" transform="translate(-13.366)" fill="#fff"/>
        <path d="M35.783,43.252H22.511a1.7,1.7,0,0,1-1.7-1.7V36.132a1.7,1.7,0,0,1,1.7-1.7H35.783a1.7,1.7,0,0,1,1.7,1.7v5.424a1.7,1.7,0,0,1-1.7,1.7M22.511,35.69a.443.443,0,0,0-.442.442v5.424a.443.443,0,0,0,.442.442H35.783a.443.443,0,0,0,.442-.442V36.132a.443.443,0,0,0-.442-.442Z" transform="translate(-13.366 -22.111)" fill="#fff"/>
        <path d="M35.783,77.688H22.511a1.7,1.7,0,0,1-1.7-1.7V70.568a1.7,1.7,0,0,1,1.7-1.7H35.783a1.7,1.7,0,0,1,1.7,1.7v5.424a1.7,1.7,0,0,1-1.7,1.7M22.511,70.126a.443.443,0,0,0-.442.442v5.424a.443.443,0,0,0,.442.442H35.783a.443.443,0,0,0,.442-.442V70.568a.443.443,0,0,0-.442-.442Z" transform="translate(-13.366 -44.222)" fill="#fff"/>
        <path d="M10.708,79.4a.626.626,0,0,1-.443-1.069l1.184-1.184L10.266,75.96a.626.626,0,0,1,.885-.885L12.778,76.7a.626.626,0,0,1,0,.885l-1.627,1.627a.623.623,0,0,1-.443.184" transform="translate(-6.473 -48.086)" fill="#fff"/>
        <path d="M5.862,58.578H5.855l-3.734-.037A2.129,2.129,0,0,1,0,56.413V47.127A2.13,2.13,0,0,1,2.127,45H8.077a.626.626,0,1,1,0,1.253H2.127a.876.876,0,0,0-.875.875v9.286a.876.876,0,0,0,.875.875l3.74.037a.626.626,0,0,1-.006,1.253" transform="translate(0 -28.894)" fill="#fff"/>
        <path d="M72.31,44.63a.623.623,0,0,1-.443-.184L70.24,42.819a.626.626,0,0,1,0-.885l1.627-1.627a.626.626,0,0,1,.885.885l-1.184,1.184,1.184,1.184a.626.626,0,0,1-.443,1.069" transform="translate(-44.982 -25.762)" fill="#fff"/>
        <path d="M77.9,79.4a.626.626,0,0,1-.443-1.069l1.184-1.184L77.456,75.96a.626.626,0,0,1,.885-.885L79.968,76.7a.626.626,0,0,1,0,.885l-1.627,1.627a.623.623,0,0,1-.443.184" transform="translate(-49.615 -48.086)" fill="#fff"/>
        <path d="M66.709,24.024a.626.626,0,0,1-.006-1.253l3.735-.038a.877.877,0,0,0,.881-.875V12.691a.875.875,0,0,0-.875-.874H64.494a.626.626,0,1,1,0-1.253h5.949a2.13,2.13,0,0,1,2.127,2.127v9.167a2.13,2.13,0,0,1-2.127,2.128l-3.728.038Z" transform="translate(-41.008 -6.783)" fill="#fff"/>
        <path d="M74.892,80.689h-4.21a.626.626,0,1,1,0-1.253h4.21a.626.626,0,1,1,0,1.253" transform="translate(-44.982 -51.004)" fill="#fff"/>
        <path d="M7.842,9.052A.626.626,0,0,1,7.4,7.982L8.583,6.8,7.4,5.614a.626.626,0,0,1,.886-.885L9.912,6.356a.626.626,0,0,1,0,.885L8.285,8.868a.623.623,0,0,1-.443.184" transform="translate(-4.633 -2.918)" fill="#fff"/>
        <path d="M4.836,10.344H.626a.626.626,0,1,1,0-1.253h4.21a.626.626,0,0,1,0,1.253" transform="translate(0 -5.837)" fill="#fff"/>
      </g>
    </g>
  </g>
</svg>
