<svg xmlns="http://www.w3.org/2000/svg" width="37.843" height="37.843" viewBox="0 0 37.843 37.843">
  <path id="Path_425" data-name="Path 425" d="M37.843,8.122a2.5,2.5,0,0,0-.736-1.778L31.5.737a2.514,2.514,0,0,0-3.556,0L.737,27.943a2.514,2.514,0,0,0,0,3.556l5.608,5.608a2.515,2.515,0,0,0,3.556,0l2.5-2.5h0l7.4-7.4h0l7.4-7.4h0l7.4-7.4h0l2.5-2.5a2.5,2.5,0,0,0,.736-1.778M36.106,8.9l-2,2L30.522,7.321a.707.707,0,1,0-1,1L33.1,11.9l-2.7,2.7L28.26,12.459a.707.707,0,0,0-1,1L29.4,15.6l-2.7,2.7-3.582-3.582a.707.707,0,1,0-1,1L25.7,19.3,23,22,20.86,19.86a.707.707,0,0,0-1,1L22,23l-2.7,2.7-3.582-3.581a.707.707,0,1,0-1,1L18.3,26.7l-2.7,2.7L13.459,27.26a.707.707,0,0,0-1,1L14.6,30.4l-2.7,2.7L8.321,29.522a.707.707,0,1,0-1,1L10.9,34.1l-2,2a1.127,1.127,0,0,1-1.556,0L1.737,30.5a1.1,1.1,0,0,1,0-1.556L28.943,1.737a1.1,1.1,0,0,1,1.556,0l5.608,5.607a1.1,1.1,0,0,1,0,1.556" fill="#fff"/>
</svg>
