<svg xmlns="http://www.w3.org/2000/svg" width="50" height="50.045" viewBox="0 0 50 50.045">
  <g id="Group_232" data-name="Group 232" transform="translate(-3742 -9712)">
    <circle id="Ellipse_66" data-name="Ellipse 66" cx="25" cy="25" r="25" transform="translate(3742 9712)" fill="#303232"/>
    <path id="Icon_open-person" data-name="Icon open-person" d="M18,0C13.05,0,9,5.04,9,11.25S13.05,22.5,18,22.5s9-5.04,9-11.25S22.95,0,18,0ZM8.6,22.5a9.009,9.009,0,0,0-8.6,9v1.172s5.63,7.6,18,7.6,18-7.6,18-7.6V31.5a8.978,8.978,0,0,0-8.6-9A12.638,12.638,0,0,1,18,27,12.638,12.638,0,0,1,8.6,22.5Z" transform="translate(3749 9721.776)" fill="#707070"/>
  </g>
</svg>

