<svg xmlns="http://www.w3.org/2000/svg" width="76.841" height="90.985" viewBox="0 0 76.841 90.985">
  <g id="Group_219" data-name="Group 219" transform="translate(-0.173 -0.232)">
    <g id="Group_220" data-name="Group 220" transform="translate(0.732 0.732)">
      <path id="Path_398" data-name="Path 398" d="M69.528,8.661C71.634,4.437,74.115,2,76.771,2,84.406,2,90.6,22.144,90.6,46.993S84.406,91.986,76.771,91.986,62.946,71.842,62.946,46.993a117.427,117.427,0,0,1,3.48-29.85" transform="translate(-38.91 -2)" fill="none" stroke="#000" stroke-miterlimit="10" stroke-width="1"/>
      <path id="Path_399" data-name="Path 399" d="M10.59,80.2A120.934,120.934,0,0,1,32.008,61.736C52.458,47.621,72.553,41.272,76.89,47.556s-8.725,22.82-29.176,36.936S7.168,104.955,2.831,98.672C1.139,96.22,2.1,92.207,5.107,87.386" transform="translate(-2 -28.121)" fill="none" stroke="#000" stroke-miterlimit="10" stroke-width="1"/>
      <path id="Path_400" data-name="Path 400" d="M69.131,80.2A120.948,120.948,0,0,0,47.713,61.737C27.263,47.622,7.168,41.273,2.831,47.557s8.726,22.82,29.176,36.935,40.545,20.463,44.882,14.18c1.692-2.451.736-6.464-2.275-11.285" transform="translate(-2 -28.122)" fill="none" stroke="#000" stroke-miterlimit="10" stroke-width="1"/>
      <circle id="Ellipse_44" data-name="Ellipse 44" cx="4.524" cy="4.524" r="4.524" transform="translate(24.287 6.284)" fill="#c3c2c0" stroke="#000" stroke-miterlimit="10" stroke-width="1"/>
      <circle id="Ellipse_45" data-name="Ellipse 45" cx="4.524" cy="4.524" r="4.524" transform="translate(1.163 51.025)" fill="#c3c2c0" stroke="#000" stroke-miterlimit="10" stroke-width="1"/>
      <circle id="Ellipse_46" data-name="Ellipse 46" cx="4.524" cy="4.524" r="4.524" transform="translate(65.51 51.025)" fill="#c3c2c0" stroke="#000" stroke-miterlimit="10" stroke-width="1"/>
      <circle id="Ellipse_47" data-name="Ellipse 47" cx="8.043" cy="8.043" r="8.043" transform="translate(29.817 36.447)" fill="#c3c2c0" stroke="#000" stroke-miterlimit="10" stroke-width="1"/>
    </g>
  </g>
</svg>
