<svg xmlns="http://www.w3.org/2000/svg" width="93.95" height="93.949" viewBox="0 0 93.95 93.949">
  <g id="Group_222" data-name="Group 222" transform="translate(-0.455 -0.455)">
    <g id="Group_223" data-name="Group 223">
      <path id="Path_401" data-name="Path 401" d="M54.562,48.748a12.548,12.548,0,0,1,1.634.906q2.263,1.753,4.457,3.594a1.2,1.2,0,0,0,1.6.178c.366-.229.86-.278,1.182-.545a2.305,2.305,0,0,0,.9-1.179c.246-1.89.361-3.8.518-5.7.128-1.542.823-2.229,2.353-2.246q2.565-.031,5.13,0a2.072,2.072,0,0,1,2.319,2.153c.2,1.858.357,3.72.592,5.572a2.622,2.622,0,0,0,3.84,1.547c1.463-1.163,2.9-2.356,4.371-3.511,1.365-1.073,2.233-1.021,3.451.178,1.162,1.144,2.319,2.294,3.457,3.461a2.27,2.27,0,0,1,.2,3.392c-1.179,1.5-2.37,2.993-3.6,4.454a1.263,1.263,0,0,0-.221,1.7c.232.362.273.863.543,1.181a2.355,2.355,0,0,0,1.2.882c1.846.273,3.715.386,5.569.615,1.681.208,2.267.908,2.28,2.607.012,1.591.019,3.182,0,4.772a2.116,2.116,0,0,1-2.084,2.412c-1.851.245-3.711.434-5.572.59-.7.059-1.253.189-1.442.957-.237.961-1.262,1.792-.226,2.933,1.253,1.382,2.377,2.883,3.534,4.35a2.392,2.392,0,0,1-.21,3.684c-1.117,1.133-2.234,2.267-3.378,3.371a2.238,2.238,0,0,1-3.3.178c-1.5-1.178-3-2.362-4.457-3.595a1.642,1.642,0,0,0-1.8-.255,2.727,2.727,0,0,0-2.2,2.991,36.132,36.132,0,0,1-.443,4.506,2.11,2.11,0,0,1-2.4,2.093c-1.67.023-3.341.026-5.011,0A2.074,2.074,0,0,1,65,94.945c-.25-1.891-.444-3.79-.6-5.691-.059-.726-.29-1.217-1.022-1.4-.925-.232-1.723-1.22-2.825-.232-1.389,1.246-2.884,2.376-4.352,3.532-1.388,1.093-2.288,1.029-3.542-.214-1.159-1.148-2.323-2.29-3.458-3.461a2.21,2.21,0,0,1-.169-3.291c1.178-1.5,2.362-3,3.6-4.454a1.682,1.682,0,0,0,.26-1.816c-.465-1.681-1.508-2.181-3.133-2.19a40.929,40.929,0,0,1-4.387-.432A2.032,2.032,0,0,1,43.34,73.1q-.05-2.683,0-5.369a2.05,2.05,0,0,1,2.125-2.224c1.779-.187,3.556-.476,5.339-.513,1.645-.034,1.591-1.39,2.148-2.305.476-.783-.049-1.26-.469-1.782-1.122-1.394-2.257-2.778-3.364-4.183s-1.045-2.255.225-3.538c1.147-1.159,2.273-2.342,3.476-3.44A9.211,9.211,0,0,1,54.562,48.748ZM59.054,70.2a10.818,10.818,0,1,0,10.937-10.73A10.784,10.784,0,0,0,59.054,70.2Z" transform="translate(-22.641 -22.863)" fill="none" stroke="#000" stroke-miterlimit="10" stroke-width="1"/>
      <circle id="Ellipse_48" data-name="Ellipse 48" cx="5.476" cy="5.476" r="5.476" transform="translate(41.954 0.955)" fill="#c3c2c0" stroke="#000" stroke-miterlimit="10" stroke-width="1"/>
      <line id="Line_65" data-name="Line 65" y1="8.972" transform="translate(47.193 11.906)" fill="none" stroke="#000" stroke-miterlimit="10" stroke-width="2"/>
      <circle id="Ellipse_49" data-name="Ellipse 49" cx="5.476" cy="5.476" r="5.476" transform="translate(41.954 82.953)" fill="#c3c2c0" stroke="#000" stroke-miterlimit="10" stroke-width="1"/>
      <line id="Line_66" data-name="Line 66" y2="8.972" transform="translate(47.666 73.981)" fill="none" stroke="#000" stroke-miterlimit="10" stroke-width="2"/>
      <circle id="Ellipse_50" data-name="Ellipse 50" cx="5.476" cy="5.476" r="5.476" transform="translate(0.955 41.954)" fill="#c3c2c0" stroke="#000" stroke-miterlimit="10" stroke-width="1"/>
      <line id="Line_67" data-name="Line 67" x1="8.972" transform="translate(11.906 47.667)" fill="none" stroke="#000" stroke-miterlimit="10" stroke-width="2"/>
      <circle id="Ellipse_51" data-name="Ellipse 51" cx="5.476" cy="5.476" r="5.476" transform="translate(82.953 41.954)" fill="#c3c2c0" stroke="#000" stroke-miterlimit="10" stroke-width="1"/>
      <line id="Line_68" data-name="Line 68" x2="8.972" transform="translate(73.981 47.193)" fill="none" stroke="#000" stroke-miterlimit="10" stroke-width="2"/>
      <circle id="Ellipse_52" data-name="Ellipse 52" cx="5.476" cy="5.476" r="5.476" transform="translate(12.963 70.945)" fill="#c3c2c0" stroke="#000" stroke-miterlimit="10" stroke-width="1"/>
      <line id="Line_69" data-name="Line 69" x1="6.344" y2="6.344" transform="translate(22.478 66.372)" fill="none" stroke="#000" stroke-miterlimit="10" stroke-width="2"/>
      <circle id="Ellipse_53" data-name="Ellipse 53" cx="5.476" cy="5.476" r="5.476" transform="translate(70.945 12.963)" fill="#c3c2c0" stroke="#000" stroke-miterlimit="10" stroke-width="1"/>
      <line id="Line_70" data-name="Line 70" y1="6.344" x2="6.344" transform="translate(66.037 22.143)" fill="none" stroke="#000" stroke-miterlimit="10" stroke-width="2"/>
      <circle id="Ellipse_54" data-name="Ellipse 54" cx="5.476" cy="5.476" r="5.476" transform="translate(12.963 12.963)" fill="#c3c2c0" stroke="#000" stroke-miterlimit="10" stroke-width="1"/>
      <line id="Line_71" data-name="Line 71" x1="6.344" y1="6.344" transform="translate(22.143 22.478)" fill="none" stroke="#000" stroke-miterlimit="10" stroke-width="2"/>
      <circle id="Ellipse_55" data-name="Ellipse 55" cx="5.476" cy="5.476" r="5.476" transform="translate(70.945 70.945)" fill="#c3c2c0" stroke="#000" stroke-miterlimit="10" stroke-width="1"/>
      <line id="Line_72" data-name="Line 72" x2="6.344" y2="6.344" transform="translate(66.372 66.037)" fill="none" stroke="#000" stroke-miterlimit="10" stroke-width="2"/>
    </g>
  </g>
</svg>
