<svg xmlns="http://www.w3.org/2000/svg" xmlns:xlink="http://www.w3.org/1999/xlink" width="28.24" height="35.989" viewBox="0 0 28.24 35.989">
  <defs>
    <clipPath id="clip-path-9">
      <rect width="28.24" height="35.989" fill="#fff"/>
    </clipPath>
  </defs>
  <g transform="translate(0 0)">
    <g transform="translate(0 0)" clip-path="url(#clip-path-9)">
      <path d="M27.8,23.955h-.022a.673.673,0,0,1-.47-.213l-4.594-4.9a.674.674,0,0,1,.03-.952l8.623-8.091a.673.673,0,0,1,.952.03l4.6,4.9a.674.674,0,0,1-.03.953l-8.63,8.1a.673.673,0,0,1-.461.182m-3.642-5.547,3.673,3.921,7.647-7.173L31.8,11.238Z" transform="translate(-13.857 -5.912)" fill="#fff"/>
      <path d="M22.3,38.541a1.652,1.652,0,0,1-1.209-.522L15.9,32.5a1.657,1.657,0,0,1,.075-2.342l.727-.682a1.657,1.657,0,0,1,2.342.075l5.183,5.523a1.656,1.656,0,0,1-.075,2.342l-.727.682a1.653,1.653,0,0,1-1.134.448M17.839,30.37a.307.307,0,0,0-.212.084l-.728.682a.31.31,0,0,0-.014.438L22.069,37.1a.311.311,0,0,0,.438.014l.727-.682a.31.31,0,0,0,.014-.438l-5.183-5.523a.305.305,0,0,0-.216-.1h-.01" transform="translate(-9.506 -17.85)" fill="#fff"/>
      <path d="M50.893,13.052a.671.671,0,0,1-.491-.213l-2.29-2.44a.673.673,0,0,1,.03-.952L50.5,7.23a.674.674,0,0,1,.952.03L53.746,9.7a.673.673,0,0,1-.03.952l-2.362,2.216a.673.673,0,0,1-.461.182M49.554,9.968l1.368,1.458,1.38-1.295L50.934,8.673Z" transform="translate(-29.479 -4.335)" fill="#fff"/>
      <path d="M57.171,7.165h-.057a1.746,1.746,0,0,1-1.226-.554l-2.9-3.085a1.757,1.757,0,0,1,.079-2.484l.6-.566a1.758,1.758,0,0,1,2.484.079L59.054,3.64a1.76,1.76,0,0,1-.079,2.484l-.6.566a1.744,1.744,0,0,1-1.2.475M54.877,1.347a.408.408,0,0,0-.28.111l-.6.565a.41.41,0,0,0-.019.58l2.895,3.085a.406.406,0,0,0,.286.129.4.4,0,0,0,.294-.111l.6-.565a.41.41,0,0,0,.018-.58L55.176,1.477a.405.405,0,0,0-.286-.129h-.013" transform="translate(-32.302 0)" fill="#fff"/>
      <path d="M20.336,70.809H20.32a10.138,10.138,0,0,1-7.809-3.938,2.241,2.241,0,0,1-.473-1.243.674.674,0,0,1,.672-.717h3.951a.673.673,0,0,1,.419.147,5.514,5.514,0,0,0,3.421,1.2.674.674,0,0,1-.005,1.347H20.49a6.85,6.85,0,0,1-4.058-1.35H13.747a8.793,8.793,0,0,0,6.6,3.2.674.674,0,0,1-.015,1.347" transform="translate(-7.404 -39.924)" fill="#fff"/>
      <path d="M48.817,47.495a.674.674,0,0,1-.488-1.137,8.836,8.836,0,0,0-1.307-13.281.674.674,0,0,1,.779-1.1,10.184,10.184,0,0,1,1.506,15.308.673.673,0,0,1-.489.21" transform="translate(-28.746 -19.591)" fill="#fff"/>
      <path d="M42.878,48.644a.674.674,0,0,1-.515-1.107A5.63,5.63,0,0,0,40.808,39a.674.674,0,1,1,.655-1.178A6.977,6.977,0,0,1,43.394,48.4a.671.671,0,0,1-.516.241" transform="translate(-24.887 -23.213)" fill="#fff"/>
      <path d="M39.757,70.344H32.746a2.86,2.86,0,0,1-.3-.012.674.674,0,0,1-.6-.67V66.083a4.29,4.29,0,0,1,6-3.939,4.165,4.165,0,0,1,1.328.9,4.267,4.267,0,0,1,1.137,2.026,4.392,4.392,0,0,1,.119,1.008V69.67a.674.674,0,0,1-.674.674M33.191,69h5.893V66.083A3.026,3.026,0,0,0,39,65.389,2.923,2.923,0,0,0,38.222,64a2.875,2.875,0,0,0-.909-.62,2.942,2.942,0,0,0-3.991,1.831,2.95,2.95,0,0,0-.13.871Z" transform="translate(-19.586 -38.004)" fill="#fff"/>
      <path d="M14.519,61.129H7.692a1.589,1.589,0,0,1-1.587-1.587V58.16a1.589,1.589,0,0,1,1.587-1.587h6.826a1.589,1.589,0,0,1,1.587,1.587v1.382a1.589,1.589,0,0,1-1.587,1.587M7.692,57.92a.241.241,0,0,0-.24.24v1.382a.24.24,0,0,0,.24.24h6.826a.24.24,0,0,0,.24-.24V58.16a.24.24,0,0,0-.24-.24Z" transform="translate(-3.755 -34.796)" fill="#fff"/>
      <path d="M27.566,85.51H.674A.674.674,0,0,1,0,84.836v-.9a3.422,3.422,0,0,1,3.418-3.418h21.4a3.422,3.422,0,0,1,3.418,3.418v.9a.674.674,0,0,1-.674.674M1.347,84.163H26.893v-.231a2.073,2.073,0,0,0-2.071-2.071H3.418a2.073,2.073,0,0,0-2.071,2.071Z" transform="translate(0 -49.521)" fill="#fff"/>
    </g>
  </g>
</svg>
