<svg xmlns="http://www.w3.org/2000/svg" width="63.557" height="109.311" viewBox="0 0 63.557 109.311">
  <g id="Group_217" data-name="Group 217" transform="translate(6984.514 -14992.485)">
    <g id="Group_215" data-name="Group 215" transform="translate(-6984 14993)">
      <g id="Group_216" data-name="Group 216" transform="translate(0 0)">
        <path id="Path_393" data-name="Path 393" d="M85.279,25.279c-8.61,8.61-23.265,7.915-23.265,7.915s-.7-14.655,7.915-23.265S93.194,2.014,93.194,2.014s.7,14.655-7.915,23.265" transform="translate(-30.679 -2)" fill="#c3c2c0" stroke="#0e1111" stroke-width="1"/>
        <path id="Path_395" data-name="Path 395" d="M85.279,137.279c-8.61,8.61-23.265,7.915-23.265,7.915s-.7-14.655,7.915-23.265,23.265-7.915,23.265-7.915.7,14.655-7.915,23.265" transform="translate(-30.679 -55.535)" fill="#c3c2c0" stroke="#0e1111" stroke-width="1"/>
        <path id="Path_397" data-name="Path 397" d="M9.928,85.279c8.61,8.61,23.265,7.915,23.265,7.915s.7-14.655-7.915-23.265S2.014,62.014,2.014,62.014s-.7,14.655,7.915,23.265" transform="translate(-2 -30.679)" fill="#c3c2c0" stroke="#0e1111" stroke-width="1"/>
        <line id="Line_63" data-name="Line 63" y2="76.496" transform="translate(31.334 31.194)" fill="none" stroke="#000" stroke-miterlimit="10" stroke-width="1"/>
        <line id="Line_64" data-name="Line 64" x2="24.013" transform="translate(19.575 107.796)" fill="none" stroke="#000" stroke-linecap="round" stroke-miterlimit="10" stroke-width="2"/>
      </g>
    </g>
  </g>
</svg>
