<svg xmlns="http://www.w3.org/2000/svg" width="90.265" height="84.88" viewBox="0 0 90.265 84.88">
  <g id="Group_212" data-name="Group 212" transform="translate(0.183 0.183)">
    <g id="Group_213" data-name="Group 213">
      <path id="Path_390" data-name="Path 390" d="M78.05,76.492s-5.722,8.992-13.079,8.992a8.992,8.992,0,0,1,0-17.983C71.511,67.5,78.05,76.492,78.05,76.492Z" transform="translate(-33.101 -39.912)" fill="none" stroke="#000" stroke-miterlimit="10" stroke-width="1"/>
      <path id="Path_391" data-name="Path 391" d="M109.98,76.492S115.7,67.5,123.059,67.5a8.992,8.992,0,1,1,0,17.983C116.519,85.483,109.98,76.492,109.98,76.492Z" transform="translate(-65.03 -39.912)" fill="none" stroke="#000" stroke-miterlimit="10" stroke-width="1"/>
      <path id="Path_392" data-name="Path 392" d="M84.062,40.69A22.989,22.989,0,1,0,46.131,15.952,22.99,22.99,0,1,0,8.2,40.689L46.131,84.356Z" transform="translate(-1.182 -1.183)" fill="none" stroke="#000" stroke-miterlimit="10" stroke-width="2"/>
    </g>
  </g>
</svg>
