<svg xmlns="http://www.w3.org/2000/svg" xmlns:xlink="http://www.w3.org/1999/xlink" width="27.105" height="35.989" viewBox="0 0 27.105 35.989">
  <defs>
    <clipPath id="clip-path-1">
      <rect  width="27.105" height="35.989" fill="#fff"/>
    </clipPath>
  </defs>
  <g transform="translate(0 0)">
    <path d="M1.072,35.125V29.869l1.408-4.907,3.677-3.717,4.011-1.77,4-.3,3.272.3,3.63,2.148L23.9,24.039l1.992,4.108.514,5.581v1.4H1.072Z" fill="#303232"/>
    <g transform="translate(0 0)" clip-path="url(#clip-path-1)">
      <path d="M17.773,19.013a9.977,9.977,0,1,0-8.437,0A13.573,13.573,0,0,0,0,31.892v3.29a.806.806,0,0,0,.806.806H26.3a.806.806,0,0,0,.806-.806v-3.29a13.56,13.56,0,0,0-9.332-12.879M5.189,9.976a8.364,8.364,0,1,1,8.364,8.364A8.373,8.373,0,0,1,5.189,9.976m20.3,24.4H1.613V31.892a11.94,11.94,0,0,1,23.88,0Z" transform="translate(0 0)" fill="#fff"/>
    </g>
  </g>
</svg>
