<svg xmlns="http://www.w3.org/2000/svg" width="64.8" height="81.92" viewBox="0 0 64.8 81.92">
  <g id="Group_196" data-name="Group 196" transform="translate(7.854 11)">
    <g id="Group_195" data-name="Group 195" transform="translate(-7.354 -9.353)">
      <g id="Subtraction_1" data-name="Subtraction 1" transform="translate(0.505 55.666)" fill="#c3c2c0">
        <path d="M 31.39379501342773 24.107421875 C 27.70595550537109 24.107421875 24.09279632568359 23.49017143249512 20.65468597412109 22.27281188964844 C 17.33269500732422 21.09651184082031 14.24941539764404 19.3885612487793 11.4904956817627 17.19642066955566 C 8.755035400390625 15.02258110046387 6.420065402984619 12.43998050689697 4.55046558380127 9.520401000976562 C 2.760080337524414 6.723367214202881 1.444611072540283 3.691483020782471 0.6357414126396179 0.5000009536743164 L 62.15381622314453 0.5000009536743164 C 61.34488677978516 3.691672563552856 60.02941131591797 6.723569393157959 58.23904418945312 9.520481109619141 C 56.36841583251953 12.44167137145996 54.03338623046875 15.02424049377441 51.29887390136719 17.19638061523438 C 48.53921508789062 19.38871002197266 45.45568466186523 21.09666061401367 42.13390350341797 22.27281188964844 C 38.6955451965332 23.49017143249512 35.08204650878906 24.107421875 31.39379501342773 24.107421875 Z" stroke="none"/>
        <path d="M 31.39379501342773 23.607421875 C 35.02504348754883 23.607421875 38.58239364624023 22.99981117248535 41.96701431274414 21.80148124694824 C 45.23655700683594 20.64383125305176 48.2715950012207 18.96274185180664 50.98787689208984 16.80486106872559 C 53.67914581298828 14.66709136962891 55.97713470458984 12.12552070617676 57.81793594360352 9.250910758972168 C 59.46240234375 6.681919574737549 60.69962310791016 3.911464929580688 61.50418472290039 1.000000953674316 L 1.285380601882935 1.000000953674316 C 2.089887142181396 3.911324024200439 3.327085256576538 6.681718349456787 4.971525192260742 9.250770568847656 C 6.811365604400635 12.12386131286621 9.109334945678711 14.66547107696533 11.80154514312744 16.80495071411133 C 14.51706504821777 18.96261024475098 17.55184555053711 20.64369010925293 20.82156562805176 21.80149078369141 C 24.20594596862793 22.99982070922852 27.76295471191406 23.607421875 31.39379501342773 23.607421875 M 31.39379501342773 24.607421875 C 27.64868545532227 24.607421875 23.97949600219727 23.98047065734863 20.48779487609863 22.744140625 C 17.113525390625 21.54932022094727 13.98168563842773 19.81445121765137 11.17944526672363 17.587890625 C 8.401615142822266 15.38037109375 6.029545307159424 12.75732135772705 4.129395484924316 9.790040969848633 C 2.194095373153687 6.766601085662842 0.8046854138374329 3.473140954971313 5.390625119616743e-06 9.37499976316758e-07 L 62.78955459594727 9.37499976316758e-07 C 61.98462677001953 3.474120855331421 60.59521484375 6.767090797424316 58.66015625 9.790040969848633 C 56.76001358032227 12.75732135772705 54.3876953125 15.38135051727295 51.60986709594727 17.587890625 C 48.80712509155273 19.81445121765137 45.67529678344727 21.54932022094727 42.30078506469727 22.744140625 C 38.80883407592773 23.98047065734863 35.13915634155273 24.607421875 31.39379501342773 24.607421875 Z" stroke="none" fill="#0e1111"/>
      </g>
      <path id="Path_377" data-name="Path 377" d="M22.261,2V20.148a31.912,31.912,0,1,0,22.847-.163V2" transform="translate(-2 -2)" fill="none" stroke="#0e1111" stroke-miterlimit="10" stroke-width="1"/>
      <line id="Line_59" data-name="Line 59" x1="25" transform="translate(19.298 0.354)" fill="none" stroke="#0e1111" stroke-linecap="round" stroke-miterlimit="10" stroke-width="4"/>
      <line id="Line_61" data-name="Line 61" x1="8.37" transform="translate(34.486 6.466)" fill="none" stroke="#0e1111" stroke-linecap="round" stroke-miterlimit="10" stroke-width="2"/>
      <line id="Line_62" data-name="Line 62" x1="8.37" transform="translate(34.486 12.501)" fill="none" stroke="#0e1111" stroke-linecap="round" stroke-miterlimit="10" stroke-width="2"/>
      <path id="Path_378" data-name="Path 378" d="M29.053,107.526A4.526,4.526,0,1,1,24.526,103a4.526,4.526,0,0,1,4.526,4.526" transform="translate(-14.181 -60.763)" fill="#c3c2c0" stroke="#0e1111" stroke-width="1"/>
      <path id="Path_379" data-name="Path 379" d="M79.053,77.526A4.526,4.526,0,1,1,74.526,73a4.526,4.526,0,0,1,4.526,4.526" transform="translate(-42.627 -43.695)" fill="#c3c2c0" stroke="#0e1111" stroke-width="1"/>
      <path id="Path_380" data-name="Path 380" d="M129.053,107.526A4.526,4.526,0,1,1,124.526,103a4.526,4.526,0,0,1,4.526,4.526" transform="translate(-71.073 -60.763)" fill="#c3c2c0" stroke="#0e1111" stroke-width="1"/>
      <path id="Path_381" data-name="Path 381" d="M40.151,73.255a2.216,2.216,0,1,1-2.216-2.216,2.216,2.216,0,0,1,2.216,2.216" transform="translate(-23.124 -42.58)" fill="#c3c2c0" stroke="#0e1111" stroke-width="1"/>
      <path id="Path_382" data-name="Path 382" d="M118.151,79.255a2.216,2.216,0,1,1-2.216-2.216,2.216,2.216,0,0,1,2.216,2.216" transform="translate(-67.5 -45.993)" fill="#c3c2c0" stroke="#0e1111" stroke-width="1"/>
    </g>
  </g>
</svg>
