<svg xmlns="http://www.w3.org/2000/svg" xmlns:xlink="http://www.w3.org/1999/xlink" width="96.079" height="96" viewBox="0 0 96.079 96">
  <defs>
    <clipPath id="clip-path">
      <rect id="Rectangle_216" data-name="Rectangle 216" width="96.079" height="96" fill="none"/>
    </clipPath>
  </defs>
  <g id="Group_207" data-name="Group 207" transform="translate(1 -2)">
    <g id="Group_206" data-name="Group 206" transform="translate(-1 2)" clip-path="url(#clip-path)">
      <path id="Path_384" data-name="Path 384" d="M14.044,95.421c2.627-2.625,5.111-5.192,7.7-7.646a2.024,2.024,0,0,0,.593-2.631C21.5,83.1,20.871,80.968,20.093,78.9A1.7,1.7,0,0,0,19.2,78c-2.323-.863-4.676-1.642-7.006-2.486a1.061,1.061,0,0,0-1.3.305c-2.46,2.5-4.951,4.973-7.433,7.454-.23.229-.471.447-.783.742A13.734,13.734,0,0,1,2.1,77.981C3.1,69.2,9.636,63.223,18.481,62.9a9.1,9.1,0,0,0,5.944-2.4c.368-.333.72-.684,1.071-1.035Q42.667,42.3,59.848,25.144a10.759,10.759,0,0,0,3.387-7.753c.158-7.089,6.1-14.041,13.093-15.119a21.075,21.075,0,0,1,7.864.2l.3.415a4.089,4.089,0,0,0-.96.536c-2.474,2.441-4.916,4.915-7.393,7.354a1.118,1.118,0,0,0-.333,1.376c.846,2.294,1.6,4.62,2.463,6.91a1.826,1.826,0,0,0,.951.956c2.288.859,4.614,1.619,6.908,2.465a1.117,1.117,0,0,0,1.382-.309c2.438-2.478,4.905-4.926,7.364-7.382.252-.251.515-.489.858-.812.129.533.265.939.322,1.355,1.529,11.128-5.559,19.1-15.625,19.732a10.8,10.8,0,0,0-7.318,3.24Q55.647,55.748,38.119,73.119a10.143,10.143,0,0,0-3.151,7.343A16.261,16.261,0,0,1,14.78,95.673C14.59,95.623,14.407,95.546,14.044,95.421Z" transform="translate(-1.092 -1.092)" fill="#c3c2c0" stroke="#000" stroke-miterlimit="10" stroke-width="1"/>
    </g>
  </g>
</svg>
